<?xml version="1.0" encoding="UTF-8"?><svg id="b" xmlns="http://www.w3.org/2000/svg" width="225.88" height="378.345" viewBox="0 0 225.88 378.345"><defs><style>.e{fill:#b3b3b3;}.e,.f,.g,.h,.i{stroke-width:0px;}.f{fill:#fff;}.g{fill:#3d8dcc;}.h{fill:#febe69;}.i{fill:#211715;}</style></defs><g id="c"><g id="d"><path class="i" d="m92.546,148.822c1.294-.453,2.547-1.106,3.792-1.676,1.992-.912,3.979-1.833,5.967-2.754,1.561-.724,3.12-1.451,4.683-2.17.161-.074.326-.143.486-.222.109-.054.353-.159-.169.069-.648.283.016.005.183-.062.335-.135.672-.271.998-.428,1.429-.688,2.725-1.796,3.483-3.205.72-1.337.964-2.773,1.193-4.252.341-2.207.721-4.402.921-6.629.117-1.293-1.186-2.4-2.4-2.4-1.395,0-2.283,1.104-2.4,2.4-.155,1.725-.445,3.42-.715,5.129-.173,1.093-.298,2.206-.69,3.248-.126.336.178-.319-.007-.011-.071.118-.134.242-.204.36-.033.056-.292.406-.119.189.162-.203-.076.074-.094.09-.372.329-.67.602-1.391.937-.473.22-.978.402-1.458.622-3.324,1.527-6.636,3.08-9.96,4.607-.862.396-1.724.791-2.59,1.181-.274.123-.549.244-.824.366-.611.271.538-.195.038-.02-1.223.428-2.036,1.641-1.676,2.952.326,1.186,1.723,2.107,2.952,1.676h0Z"/><path class="i" d="m148.021,127.246c.187,2.075.488,4.131.828,6.186.181,1.096.282,2.217.611,3.283.401,1.297,1.081,2.544,2.1,3.46.567.51,1.204.967,1.886,1.311.44.222.898.413,1.357.59.939.363-.523-.266-.174-.084,2.94,1.53,6.019,2.84,9.015,4.257,1.378.652,2.747,1.333,4.153,1.922,1.196.501,2.64-.54,2.952-1.676.38-1.384-.476-2.449-1.676-2.952,1.218.51-.112-.074-.399-.208-.642-.301-1.284-.604-1.925-.908-1.737-.821-3.473-1.644-5.209-2.465-1.343-.636-2.685-1.274-4.031-1.902-.445-.208-1.08-.455-1.392-.598-.28-.128-.547-.278-.811-.435-.046-.027-.46-.312-.244-.15.185.138-.095-.083-.107-.095-.096-.094-.614-.684-.316-.278-.174-.236-.309-.49-.446-.748-.127-.24.042.111.051.136-.067-.18-.129-.36-.184-.545-.073-.249-.134-.502-.187-.756-.125-.597-.206-1.203-.298-1.806-.279-1.847-.586-3.675-.755-5.538-.117-1.291-1.02-2.4-2.4-2.4-1.208,0-2.517,1.102-2.4,2.4h0Z"/><path class="e" d="m129.426,316.259c-.99,6.17-2.37,12.5-3.06,14.64-1.84,5.72-5.01,10.27-10.47,14.22-3.6,2.59-10.9,5.43-19.15,6.67-9.53,1.43-25.32,1.64-35.87.57-1.14-.1-1.99-1.09-1.88-2.2,1.1-12.85,2.01-22.57,4.02-40.2.43-4.638.86-9.246,1.299-13.703-3.297-.085-6.542-.857-9.432-2.416-7.17-3.87-12.263-10.691-15.087-18.198-4.723-12.556-5.024-26.33-5.371-40.269-.344-10.168.504-20.411,1.668-30.505,1.058-9.177,2.255-18.557,5.163-27.361,2.363-7.156,5.985-14.12,11.728-19.143,8.631-7.548,18.955-11.385,30.622-15.052,1.494-.47,10.107-2.74,11-3,0,0,1.77-.516,4.34-1.264,6.207,22.176,24.209,76.785,30.347,89.828h1.82c6.537-13.918,26.56-75.171,31.362-93.841,2.558,1.622,6.021,4.079,9.336,6.844,15.596,5.661,31.642,9.997,41.544,24.433,6.738,9.822,7.596,20.147,8.688,31.552,1.217,12.713,1.448,25.605,1.435,38.368,0,11.648-.558,24.004-5.183,34.864-4.757,11.169-13.027,17.043-22.749,20.261.599,5.937,1.199,12.234,1.779,18.602,2.02,17.63,2.93,27.35,4.02,40.2.11,1.11-.74,2.1-1.87,2.2-10.55,1.07-26.34.86-35.87-.57-8.25-1.24-15.55-4.08-19.15-6.67-5.47-3.95-8.64-8.5-10.47-14.22-.69-2.14-2.08-8.47-3.06-14.64h-1.5Z"/><path class="f" d="m115.982,192.836c-6.087-17.951-12.49-38.036-16.14-50.65-.237-1.724.561-3.785,1.595-4.983,2.037-2.359,4.604-5.772,6.686-8.101.885.716,18.921,13.541,20.289,14.511h3.526c1.368-.969,19.404-13.795,20.289-14.511,2.082,2.329,4.649,5.742,6.686,8.101,1.037,1.202,1.838,3.272,1.593,5-6.878,23.816-23.538,74.212-29.391,86.673h-1.82c-2.758-5.86-7.91-20.11-13.312-36.04Z"/><path class="g" d="m138.435,174.808c-.639-5.122-1.075-8.615-1.075-8.845,0-.961,1.287-7.331,1.833-9.575,0,0,.26-1.07.665-2.731-3.025-4.002-6.181-8.086-7.92-10.043h-3.526c-1.813,2.04-5.166,6.391-8.305,10.552.738,1.537,1.228,2.556,1.228,2.556.728,1.517,2.368,7.685,2.398,9.403.015.912-2.546,18.685-4.873,35.101,4.3,12.393,8.173,22.844,10.435,27.651h1.82c2.273-4.84,6.177-15.403,10.504-27.908-.077-.661-.119-1.022-.119-1.022-1.014-8.701-2.217-18.349-3.064-25.137Z"/><path class="f" d="m173.23,72.477c1.39-1.336,3.263-1.838,4.866-1.781,3.488.123,4.972,2.009,5.611,3.117,1.906,3.306,1.826,9.399.546,13.168-.906,2.67-2.391,6.753-5.97,9.682-1.475,1.207-3.645,2.002-5.721,1.651,0,0-.199-.034-.549-.093-.659,2.176-1.472,4.307-1.968,5.342-1.365,3.706-8.533,16.134-17.819,22.109,0,1.888,0,3.429,0,3.429-.885.716-18.921,13.541-20.289,14.511h-3.526c-1.368-.969-19.404-13.795-20.289-14.511v-3.479c-3.613-2.197-6.949-5.247-10.155-9.085-5.156-6.171-8.091-12.818-9.713-18.325-2.212.57-4.603-.252-6.19-1.55-3.579-2.928-5.064-7.012-5.97-9.682-1.28-3.77-1.36-9.862.546-13.168.639-1.108,2.123-2.994,5.611-3.117,1.603-.056,3.476.445,4.866,1.781,0,0-10.082-41.135,43.056-41.135s43.056,41.135,43.056,41.135Z"/><path class="h" d="m168.389,65.381c-1.389-4.538-2.89-8.024-4.3-9.934-3.68-4.985-5.086-6.475-12.412-8.159l-24.82-3.733c-4.013-.741-13.477-.934-17.024-.561-2.291.241-4.665.749-6.444,2.247-2.363,1.99-3.185,5.258-4.566,8.054-2.398,4.854-8.04,7.361-8.935,12.798-.539,3.271-.628,4.868-.846,7.731-.959-.671-1.924-1.347-1.924-1.347-1.39-1.336-3.263-1.838-4.866-1.781-1.016.036-1.862.221-2.567.493-1.642-5.98-2.042-11.891-2.092-17.033-.357-12.69,4.418-25.487,10.402-31.344,2.769-4.011,7.047-7.984,9.232-9.614,9.773-7.29,20.507-10.767,32.756-10.767,11.677,0,23.524,2.746,32.438,12.677l6.876,6.112c3.009,2.718,5.462,5.473,7.406,8.69,3.487,5.771,5.335,13.033,5.809,24.245.247,5.845-.434,10.62-2.029,16.97-.666-.239-1.455-.397-2.386-.43-1.603-.056-3.476.445-4.866,1.781l-4.841-7.097Z"/><path class="i" d="m182.936,71.18c1.088-4.445,1.902-8.972,2.011-13.557.103-4.335-.285-8.713-.898-13.001-.895-6.259-2.774-12.465-6.426-17.692-1.908-2.731-4.166-5.17-6.629-7.406-2.283-2.072-5.687,1.313-3.394,3.394,3.929,3.566,7.207,7.545,9.137,12.368,2.566,6.412,3.32,13.556,3.418,20.412.069,4.835-.701,9.522-1.848,14.206-.734,3,3.893,4.28,4.629,1.276h0Z"/><path class="i" d="m170.512,94.423c-.646,3.133-1.86,6.217-2.935,8.9.004-.009.202-.43-.011.014-.094.196-.181.395-.275.592-.204.427-.419.849-.64,1.267-.524.993-1.084,1.968-1.667,2.927-3.114,5.116-6.907,9.915-11.548,13.731-2.508,2.062-5.358,3.681-8.496,4.409-3.008.697-1.735,5.326,1.276,4.629,6.59-1.527,12.073-6.334,16.374-11.341,3.538-4.12,6.84-8.751,9.089-13.719.156-.346.305-.695.45-1.046.04-.096.273-.659.135-.337-.144.339.014-.018.038-.072.157-.346.301-.7.447-1.051.158-.381.309-.765.455-1.151.795-2.106,1.483-4.268,1.937-6.474.261-1.268-.369-2.593-1.676-2.952-1.188-.326-2.689.401-2.952,1.676h0Z"/><path class="i" d="m85.084,95.546c1.446,6.373,4.036,12.555,7.665,17.995,3.891,5.833,8.986,11.289,15.152,14.743,3.206,1.796,6.713,3.015,10.347,3.555,1.281.19,2.58-.32,2.952-1.676.311-1.131-.386-2.761-1.676-2.952-7.917-1.175-14.172-5.748-19.298-11.706-5.222-6.069-8.746-13.445-10.513-21.233-.683-3.011-5.312-1.737-4.629,1.276h0Z"/><path class="i" d="m124.499,110.462c.316-.167.634-.326.958-.478.531-.249-.476.165.135-.051.234-.083.467-.167.705-.24.644-.197,1.299-.328,1.961-.441-.36.061-.094.011.117-.011.193-.021.386-.038.579-.053.467-.035.936-.052,1.405-.054.437-.003.874.007,1.31.033.201.012.402.026.603.045.049.005.791.107.253.021.655.104,1.304.237,1.938.436.251.078.543.251.8.287-.083-.012-.477-.227-.196-.077.111.059.227.109.338.167.163.086.324.177.481.276.198.125.765.56.023-.017.988.77,2.444,1.035,3.394,0,.79-.861,1.058-2.57,0-3.394-2.478-1.93-5.573-2.555-8.672-2.575-3.016-.02-5.887.576-8.553,1.984-1.112.587-1.542,2.227-.861,3.284.729,1.131,2.094,1.489,3.284.861h0Z"/><path class="i" d="m129.316,88.992c.368,1.405.722,2.832.933,4.269l-.086-.638c.025.197.036.391.016.589l.086-.638c-.014.092-.034.177-.065.265l.242-.573c-.027.062-.056.114-.094.17l.375-.486c-.044.053-.086.094-.14.137l.486-.375c-.108.069-.222.125-.338.179l.573-.242c-.186.078-.371.135-.57.166l.638-.086c-.18.021-.355.02-.535,0l.638.086c-.202-.028-.4-.077-.601-.104-.319-.1-.638-.114-.957-.043-.319.014-.617.109-.892.285-.498.291-.973.862-1.103,1.434-.14.614-.11,1.304.242,1.849.312.484.835,1.022,1.434,1.103.478.064.942.185,1.428.207.755.033,1.454-.2,2.128-.51.837-.385,1.492-1.149,1.714-2.049.189-.764.109-1.418-.02-2.184-.232-1.375-.55-2.739-.904-4.088-.152-.579-.588-1.133-1.103-1.434s-1.273-.429-1.849-.242c-1.25.404-2.018,1.651-1.676,2.952h0Z"/><path class="i" d="m106.945,76.845c-.713,2.317-.248,7.647,4.141,8.101,5.802-.035,6.11-6.479,4.157-9.509-1.599-2.481-6.301-3.512-8.298,1.408Z"/><path class="i" d="m153.403,76.845c.713,2.317.249,7.647-4.141,8.1-5.802-.035-6.111-6.479-4.158-9.509,1.599-2.481,6.301-3.512,8.299,1.408Z"/><path class="i" d="m174.927,74.174c1.118-1.002,2.667-1.275,4.113-.967.64.136,1.197.356,1.718.751-.212-.161.292.283.288.279.107.108.21.22.308.336-.153-.209-.153-.207-.001.004,1.533,2.262,1.569,5.417,1.351,8.049-.222,2.678-1.168,5.365-2.422,7.731-1.561,2.946-4.042,6.043-7.719,5.557-1.287-.17-2.4,1.225-2.4,2.4,0,1.438,1.109,2.229,2.4,2.4,7.626,1.009,12.294-7.383,14.147-13.541.993-3.3,1.098-6.92.531-10.304-.467-2.787-1.692-5.414-4.058-7.057-3.532-2.452-8.541-1.82-11.648.967-2.304,2.067,1.099,5.452,3.394,3.394h0Z"/><path class="i" d="m88.815,70.78c-2.943-2.64-7.212-3.224-10.776-1.474-2.525,1.24-4.013,3.723-4.683,6.376-1.573,6.231-.018,13.336,3.49,18.663,2.409,3.658,6.257,6.989,10.939,6.369,1.285-.17,2.4-.981,2.4-2.4,0-1.165-1.106-2.571-2.4-2.4-3.679.487-6.156-2.612-7.719-5.557-1.255-2.364-2.201-5.055-2.422-7.731-.218-2.633-.182-5.788,1.351-8.049.152-.212.152-.213-.001-.004.098-.116.201-.228.308-.336.044-.042.519-.455.288-.279.523-.396,1.077-.615,1.718-.751,1.447-.307,2.995-.036,4.113.967,2.294,2.057,5.699-1.326,3.394-3.394h0Z"/><path class="i" d="m164.118,13.412c-6.093-6.713-14.283-10.904-23.174-12.459s-18.305-1.248-26.996,1.23c-8.432,2.405-16.455,6.884-22.674,13.092-1.716,1.714-3.308,3.542-4.752,5.491-1.086,1.465-2.395,2.745-3.439,4.262-2.506,3.639-4.277,7.821-5.555,12.036-1.629,5.369-2.424,11.036-2.344,16.644.084,5.885.558,11.752,2.015,17.472.762,2.991,5.393,1.724,4.629-1.276-1.211-4.752-1.709-9.599-1.814-14.494-.1-4.663.199-9.23,1.262-13.782.944-4.043,2.333-7.997,4.368-11.624.842-1.501,1.777-2.967,2.905-4.271,1.276-1.477,2.44-3.035,3.725-4.507,5.386-6.168,12.028-10.653,19.909-13.443s16.441-3.498,24.766-2.589c9.133.997,17.559,4.763,23.776,11.613,2.081,2.292,5.467-1.11,3.394-3.394h0Z"/><path class="i" d="m127.495,41.24c-3.632-.647-7.374-.769-11.054-.821s-7.734-.178-11.237,1.11c-2.346.862-4.191,2.342-5.556,4.434-1.17,1.794-1.819,3.86-2.734,5.783-1.643,3.453-4.877,5.704-7.113,8.736-2.986,4.05-2.856,9.48-3.233,14.294-.102,1.294,1.176,2.4,2.4,2.4,1.383,0,2.298-1.102,2.4-2.4.16-2.034.275-4.076.539-6.1.226-1.73.471-3.351,1.405-4.847,1.832-2.935,4.799-4.995,6.738-7.876,1.974-2.934,2.424-7.586,5.721-9.443,2.73-1.537,6.456-1.312,9.491-1.301,2.063.007,4.127.067,6.187.188,1.711.1,3.403.228,4.771.472,1.275.227,2.587-.345,2.952-1.676.319-1.161-.393-2.724-1.676-2.952h0Z"/><path class="i" d="m151.039,49.602c1.203.279,2.403.579,3.578.96.478.155.949.327,1.416.511-.519-.204.077.037.147.07.224.104.446.214.665.33.336.179.665.374.982.585.166.11.326.229.489.344-.499-.352-.063-.051.047.047.625.553,1.21,1.135,1.754,1.769.305.355.598.721.888,1.088-.31-.393.137.18.158.207.164.217.327.435.489.653.575.773,1.094,1.563,1.545,2.416,1.23,2.328,2.064,4.799,2.878,7.438.382,1.238,1.675,2.027,2.952,1.676,1.224-.336,2.06-1.709,1.676-2.952-.903-2.926-1.928-5.871-3.362-8.585-1.016-1.923-2.417-3.69-3.83-5.335-1.197-1.394-2.616-2.628-4.244-3.495-2.168-1.155-4.573-1.803-6.952-2.355-1.262-.293-2.599.391-2.952,1.676-.333,1.213.408,2.658,1.676,2.952h0Z"/><path class="i" d="m143.497,43.907c-.678-2.887-2.929-5.36-5.203-7.131-3.776-2.94-8.234-4.464-12.944-5.083-1.25-.164-2.453,1.221-2.4,2.4.065,1.441,1.061,2.224,2.4,2.4-.274-.036.464.076.555.092.3.051.599.107.896.168.493.101.984.217,1.471.347.987.263,1.955.59,2.902.973-.435-.176.153.07.241.11.229.104.457.213.682.325.404.201.803.414,1.193.641.372.216.738.443,1.096.682.186.124.369.251.55.381.106.076.563.426.108.07.59.462,1.153.959,1.678,1.494.222.226.437.459.644.699.115.133.22.276.337.406.113.142.063.076-.151-.197.057.076.114.152.169.229.319.467.626.935.876,1.443.044.09.08.25.147.316-.275-.27-.178-.498-.077-.164.068.226.146.444.2.675.296,1.262,1.737,2.01,2.952,1.676,1.292-.355,1.974-1.686,1.676-2.952h0Z"/><path class="i" d="m190.463,352.836v22.83c0,3.089,4.8,3.094,4.8,0v-22.83c0-3.089-4.8-3.094-4.8,0h0Z"/><path class="i" d="m64.833,352.826v23.2c0,3.089,4.8,3.094,4.8,0v-23.2c0-3.089-4.8-3.094-4.8,0h0Z"/><path class="i" d="m61.916,296.249c-1.117,11.344-2.356,22.673-3.493,34.014-.432,4.313-.837,8.628-1.221,12.946-.195,2.196-.411,4.392-.575,6.59-.098,1.31.237,2.55,1.143,3.535,1.022,1.111,2.341,1.354,3.772,1.489,9.742.922,19.692.863,29.437.025,9.503-.818,19.919-2.756,27.611-8.781,4.392-3.44,7.648-7.904,9.602-13.125,1.902-5.083,2.685-10.717,3.548-16.046.207-1.278-.331-2.583-1.676-2.952-1.145-.315-2.744.389-2.952,1.676-1.391,8.59-2.544,17.989-8.961,24.448-6.316,6.357-15.791,8.747-24.407,9.708-9.183,1.025-18.549,1.111-27.768.579-1.022-.059-2.043-.128-3.063-.212-.414-.034-1.129-.225-1.538-.137-.443.095.011-.114,0,.155.084-2.056.382-4.198.566-6.276.361-4.072.738-8.143,1.141-12.211,1.169-11.814,2.471-23.613,3.634-35.427.127-1.292-1.194-2.4-2.4-2.4-1.404,0-2.272,1.105-2.4,2.4h0Z"/><path class="i" d="m193.146,291.349c1.142,11.319,2.285,22.634,3.471,33.948.461,4.399.896,8.801,1.303,13.206.187,2.021.368,4.042.545,6.064.091,1.035.18,2.071.269,3.107.045.53.091,1.06.136,1.589.023.275.114.625.076.896-.014.101.909-.451.242-.182s-1.731.168-2.452.223c-1.097.083-2.195.151-3.294.207-2.478.127-4.958.196-7.439.219-4.878.045-9.761-.075-14.628-.42-4.697-.333-9.281-.909-13.846-2.127-4.115-1.097-8.362-2.54-11.863-5.033-4.095-2.917-7.306-6.986-9.008-11.727-1.794-4.997-2.582-10.48-3.419-15.699-.205-1.281-1.801-1.993-2.952-1.676-1.363.375-1.882,1.668-1.676,2.952.792,4.935,1.571,10.05,3.118,14.818s4.204,9.122,7.901,12.549c7.501,6.953,18.085,9.417,27.991,10.421,9.971,1.011,20.179,1.078,30.164.23,1.178-.1,2.468-.09,3.54-.645,1.325-.687,2.231-1.979,2.382-3.464.225-2.214-.308-4.701-.503-6.92-.395-4.484-.812-8.967-1.261-13.446-.595-5.946-1.243-11.887-1.916-17.825-.802-7.076-1.368-14.181-2.083-21.267-.13-1.29-1.01-2.4-2.4-2.4-1.197,0-2.531,1.102-2.4,2.4h0Z"/><path class="i" d="m106.426,127.406c-1.303,1.47-2.529,3.006-3.76,4.537-1.219,1.517-2.625,2.97-3.709,4.585-1.107,1.649-1.722,3.799-1.497,5.778.117,1.026.513,1.887.931,2.806,2.127,4.681,4.354,9.354,7.186,13.657,1.706,2.592,3.639,5.193,6.261,6.923,1.17.772,2.541.13,3.284-.861,4.924-6.568,9.567-13.392,14.986-19.521,1.089-1.232.823-2.842-.486-3.769-5.805-4.116-11.602-8.244-17.381-12.396-.635-.456-1.27-.912-1.902-1.372-.212-.154-.422-.309-.633-.463-.431-.312-.15-.115.114.095-1.013-.807-2.405-.989-3.394,0-.837.837-1.019,2.582,0,3.394,2.302,1.833,4.77,3.479,7.163,5.189,3.534,2.525,7.071,5.045,10.61,7.563,1,.712,2,1.424,3.001,2.134l-.486-3.769c-5.692,6.438-10.586,13.623-15.736,20.493l3.284-.861c-.178-.118-.356-.236-.526-.367.335.258-.222-.207-.307-.284-.402-.364-.782-.753-1.146-1.155-.839-.926-1.426-1.721-2.139-2.767-1.533-2.247-2.873-4.625-4.127-7.038-1.033-1.988-2.002-4.009-2.934-6.046-.265-.58-.542-1.157-.793-1.743-.038-.09-.097-.177-.126-.27-.06-.196.062.277.052.071-.035-.72.061-1.386.349-2.058.675-1.576,2.165-2.903,3.229-4.227,1.319-1.641,2.628-3.292,4.025-4.868,2.042-2.305-1.34-5.712-3.394-3.394Z"/><path class="i" d="m150.529,130.8c1.162,1.311,2.262,2.674,3.36,4.039s2.321,2.673,3.342,4.087c.39.54.68,1.169.819,1.82.064.296.079.543.098.844.016.242-.041.589.05.261-.138.495-.459,1.001-.671,1.467-1.991,4.378-4.11,8.734-6.734,12.773-.74,1.139-1.474,2.194-2.289,3.15-.418.49-.854.966-1.321,1.411-.609.581-.513.511-1.097.896l3.284.861c-5.15-6.87-10.045-14.055-15.736-20.493l-.486,3.769c5.908-4.189,11.809-8.389,17.689-12.618,1.035-.744,2.087-1.474,3.085-2.268,1.015-.808.844-2.55,0-3.394-1.002-1.002-2.377-.81-3.394,0,.798-.635.006-.015-.324.225-.497.362-.996.721-1.494,1.08-1.558,1.121-3.119,2.238-4.681,3.354-3.431,2.452-6.866,4.898-10.302,7.343-1,.712-2,1.424-3.001,2.134-1.309.928-1.575,2.537-.486,3.769,5.419,6.13,10.062,12.953,14.986,19.521.744.993,2.102,1.641,3.284.861,4.711-3.109,7.659-8.846,10.171-13.727,1.066-2.072,2.062-4.179,3.026-6.3.223-.492.457-.979.676-1.472.919-2.063.591-4.366-.303-6.378-.847-1.909-2.437-3.437-3.735-5.048-1.454-1.803-2.885-3.627-4.422-5.361-2.053-2.317-5.437,1.088-3.394,3.394Z"/><path class="i" d="m136.834,161.761c-4.233-.002-8.465-.089-12.698-.09-1.255,0-2.458,1.104-2.4,2.4s1.055,2.399,2.4,2.4c4.233.002,8.465.089,12.698.09,1.255,0,2.458-1.104,2.4-2.4s-1.055-2.4-2.4-2.4h0Z"/><path class="i" d="m136.879,155.749c-.639,2.657-1.185,5.351-1.633,8.047-.238,1.432-.263,2.485-.093,3.89.732,6.071,1.511,12.137,2.257,18.207.575,4.683,1.142,9.367,1.689,14.053.15,1.287.995,2.4,2.4,2.4,1.181,0,2.551-1.104,2.4-2.4-.91-7.8-1.874-15.593-2.845-23.385-.332-2.661-.666-5.322-.992-7.983-.086-.7-.177-1.4-.251-2.101-.016-.148-.044-.3-.046-.449-.004-.243.077-.784-.005-.219.427-2.945,1.054-5.89,1.749-8.783.722-3.002-3.906-4.283-4.629-1.276h0Z"/><path class="i" d="m121.402,200.249c1.145-8.065,2.302-16.129,3.429-24.196.37-2.651.742-5.302,1.082-7.956.195-1.526.202-2.729-.09-4.275-.527-2.793-1.225-5.719-2.416-8.312-.541-1.178-2.243-1.47-3.284-.861-1.209.707-1.404,2.101-.861,3.284.163.355-.151-.44.008.03.082.242.173.481.253.724.201.604.383,1.214.557,1.826.358,1.256.682,2.524.955,3.801.112.525.224,1.055.296,1.587-.07-.513,0,.126-.005.343-.013.5-.108,1.01-.17,1.505-.271,2.159-.54,4.056-.882,6.51-.489,3.51-.987,7.019-1.485,10.528-.671,4.729-1.345,9.458-2.017,14.187-.182,1.282.314,2.578,1.676,2.952,1.125.309,2.769-.385,2.952-1.676h0Z"/><path class="i" d="m160.143,134.495c-3.123,12.061-7.009,23.948-10.828,35.802-4.613,14.318-9.361,28.603-14.511,42.737-1.078,2.957-2.176,5.908-3.327,8.837-.457,1.163-.926,2.32-1.405,3.474-.136.327.236-.551.027-.064-.06.14-.119.28-.179.419-.095.222-.191.443-.289.664-.192.436-.388.87-.59,1.301l2.072-1.189h-1.82l2.072,1.189c-.369-.788-.717-1.585-1.06-2.384-.163-.379.038.09.058.138-.052-.125-.105-.249-.157-.374-.097-.233-.193-.466-.289-.699-.228-.556-.453-1.113-.675-1.671-.983-2.469-1.923-4.954-2.845-7.446-2.405-6.498-4.69-13.041-6.933-19.597-4.953-14.478-9.705-29.03-14.191-43.66-1.777-5.797-3.546-11.605-5.069-17.475-.775-2.988-5.406-1.721-4.629,1.276,3.155,12.162,7.083,24.147,10.944,36.098,4.631,14.337,9.395,28.642,14.572,42.793,1.897,5.185,3.782,10.421,6.129,15.424.35.745,1.286,1.189,2.072,1.189h1.82c.785,0,1.723-.443,2.072-1.189,2.032-4.341,3.697-8.867,5.359-13.359,2.396-6.477,4.671-12.999,6.904-19.534,4.965-14.531,9.728-29.137,14.223-43.82,1.788-5.839,3.568-11.69,5.099-17.603.775-2.992-3.854-4.269-4.629-1.276h0Z"/><path class="i" d="m150.574,232.582c11.462-19.869,22.796-39.833,33.267-60.246.757-1.475,1.429-2.91.958-4.598-.439-1.571-1.758-2.716-2.852-3.851-2.295-2.383-4.694-4.662-7.106-6.925l-.486,3.769c1.928-1.1,3.855-2.201,5.783-3.301,1.798-1.026,4.082-1.923,3.925-4.386-.097-1.522-1.264-3.093-2.15-4.291-.944-1.276-1.967-2.488-3.063-3.637-4.384-4.599-9.578-8.562-14.912-11.994-2.606-1.676-5.015,2.477-2.423,4.145,3.498,2.25,6.844,4.747,9.978,7.481,1.676,1.462,3.299,2.995,4.787,4.651.585.651,1.158,1.315,1.669,2.025.286.398.561.805.817,1.223.097.158.191.318.282.48.046.081.246.64.234.354l.328-1.211c.209-.404-.193.045-.448.191-.344.196-.688.393-1.033.589-.688.393-1.377.786-2.065,1.179-1.377.786-2.754,1.572-4.131,2.358-1.31.748-1.61,2.715-.486,3.769,2.01,1.885,4.01,3.781,5.948,5.74.499.504.995,1.013,1.485,1.526.367.385,1.061.892,1.288,1.375.044.094.086-.169-.06.113-.345.67-.688,1.342-1.033,2.012-2.473,4.799-4.996,9.571-7.555,14.325-5.205,9.669-10.557,19.259-15.979,28.807-3.017,5.313-6.058,10.613-9.111,15.905-1.546,2.681,2.6,5.1,4.145,2.423h0Z"/><path class="i" d="m225.88,236.232c.007-9.359-.111-18.722-.652-28.067-.492-8.494-1.065-17.174-2.719-25.534-1.556-7.865-4.787-15.169-9.971-21.321-4.639-5.505-10.673-9.668-17.102-12.822-7.389-3.624-15.255-6.123-22.975-8.919-1.219-.441-2.628.497-2.952,1.676-.367,1.334.453,2.509,1.676,2.952,12.69,4.597,26.528,8.463,36.159,18.505,5.153,5.373,8.442,12.015,10.115,19.235,1.775,7.661,2.277,15.699,2.801,23.525.685,10.241.828,20.509.821,30.77-.002,3.089,4.798,3.094,4.8,0h0Z"/><path class="i" d="m36.826,235.373c.043-9.567.439-19.13,1.461-28.646,1.017-9.466,2.2-19.041,5.138-28.134,2.538-7.856,6.593-14.921,13.133-20.094,6.362-5.032,13.955-8.256,21.568-10.872,5.645-1.94,11.39-3.356,17.12-5.001,2.964-.851,1.704-5.484-1.276-4.629-4.905,1.408-9.853,2.592-14.703,4.189-8.155,2.685-16.318,5.855-23.364,10.854-3.619,2.567-6.852,5.468-9.535,9.013-2.624,3.467-4.587,7.354-6.184,11.387-3.609,9.117-5.001,18.943-6.161,28.622-1.326,11.07-1.947,22.162-1.996,33.31-.014,3.089,4.786,3.093,4.8,0h0Z"/><path class="f" d="m40.229,113.075c-1.374.859-2.661,1.195-3.824.998-.687-.116-1.315-.356-1.866-.715-1.965-1.277-4.004-4.357-5.741-8.671-2.235-5.55-.997-9.356.436-13.765.335-1.031.682-2.098.988-3.209.654-2.286.305-4.562-.987-6.404-1.211-1.727-3.156-2.842-5.202-2.983-1.808-.214-3.731.237-5.386,1.271-1.656,1.035-2.916,2.586-3.457,4.256-1.056,2.759-.945,5.616-.696,8.042.063.616.049,1.821-.756,2.971-.437.624-1.073,1.214-1.791,1.662-.791.494-1.653.807-2.493.905-2.253.262-3.989-.789-5.306-3.213-1.387-2.553-1.987-5.667-1.69-8.768.583-6.081,4.743-12.375,10.599-16.034,3.327-2.079,8.687-4.225,15.327-2.641,4.681,1.116,8.981,4.297,11.503,8.51,2.301,3.844,2.968,8.236,1.879,12.367-.688,2.608-1.332,4.511-1.9,6.189-.336.992-.626,1.847-.876,2.705-.608,2.081-.338,4.521.704,6.367l.441.776c.716,1.255,1.335,2.339,1.872,3.611.298.705.491,1.909.25,3.01-.242,1.101-.981,2.109-2.029,2.763Z"/><path class="f" d="m49.86,129.286c-1.678,1.049-3.7,1.235-5.41.498-2.681-1.305-3.689-4.15-3.287-6.281.261-1.38,1.151-2.605,2.573-3.544l.104-.067c.665-.416,3.02-1.691,5.397-.655,2.524,1.1,3.952,4.276,3.118,6.936-.391,1.247-1.277,2.352-2.495,3.114Z"/><path class="i" d="m39.017,111.003c-1.122.662-2.1,1.018-3.267.283-.484-.305-1.286-1.188-1.792-1.892-1.678-2.336-3.041-5.182-3.69-7.985-.604-2.61-.159-5.159.594-7.683.864-2.895,2.296-5.885,2.046-8.971-.532-6.592-7.357-10.483-13.425-8.213-2.976,1.113-5.352,3.366-6.49,6.342s-1.067,5.91-.899,9.013c.111,2.053-2.329,3.816-4.165,3.016-2.068-.902-2.861-4.409-3.073-6.375-.58-5.363,2.113-10.551,5.854-14.227,3.619-3.557,8.466-5.803,13.589-5.673,5.502.139,10.68,3.138,13.516,7.863,1.658,2.761,2.438,6.068,1.911,9.272-.507,3.082-1.752,6.066-2.706,9.028-1.063,3.3-.945,6.56.769,9.623.943,1.685,3.593,4.977,1.228,6.582-2.542,1.724-.143,5.885,2.423,4.145,3.049-2.068,4.11-5.66,2.64-9.057-1.064-2.459-3.105-4.706-3.005-7.515.054-1.497.733-2.989,1.207-4.393.466-1.379.917-2.762,1.321-4.161,1.013-3.506,1.412-6.952.568-10.549-1.519-6.48-6.527-11.725-12.609-14.19s-13.057-1.667-18.71,1.47c-5.489,3.046-9.89,8.236-11.875,14.2-1.063,3.194-1.265,6.643-.577,9.938.626,3.001,2.111,6.37,4.839,8.014,3.019,1.82,6.942.875,9.406-1.446,1.336-1.258,2.158-2.939,2.26-4.776.082-1.483-.227-2.976-.163-4.47.124-2.928,1.173-5.792,4.017-7.044,2.451-1.079,5.555-.421,6.842,2.061.821,1.583.522,3.148.034,4.786-.513,1.721-1.128,3.412-1.607,5.143-.99,3.574-1.165,7.247-.034,10.813,1.104,3.478,2.896,7.167,5.417,9.851,2.77,2.95,6.565,3.37,10.029,1.324,2.658-1.57.246-5.721-2.423-4.145Z"/><path class="i" d="m48.649,127.213c-.163.098-.333.183-.496.28-.088.053-.41.241.061-.011-.256.136-.598.211-.879.276-.046.011-.29.089-.357.072l.279-.036c-.12.013-.239.022-.36.028-.263.012-.647.067-.895-.029l.284.035c-.117-.021-.234-.045-.35-.074-.116-.028-.231-.061-.344-.097-.1-.032-.469-.274-.21-.071.283.221-.108-.08-.161-.112-.093-.055-.185-.113-.275-.173l-.132-.091c-.168-.124-.172-.125-.009-.003l.119.09c-.079-.066-.157-.134-.233-.204-.112-.104-.22-.212-.324-.324-.085-.092-.164-.189-.246-.284-.216-.248.321.499.066.07-.124-.209-.259-.407-.37-.624-.031-.06-.084-.222-.125-.257.253.219.158.444.055.115-.076-.243-.158-.482-.214-.731-.025-.109-.036-.225-.065-.333-.084-.312.046.648.028.174-.008-.218-.024-.433-.016-.651.003-.085.012-.169.015-.254.018-.456-.133.492-.03.205.073-.201.212-.593.22-.811-.014.385-.16.344-.02.07.06-.118.125-.234.195-.348-.002.004.151-.267.178-.27l-.178.223c.07-.087.142-.172.216-.256.173-.194.359-.375.555-.546l.067-.058c.203-.166.184-.153-.058.039.033-.073.28-.196.359-.247.244-.157.501-.286.759-.418.222-.114.34-.026-.156.059.081-.014.186-.073.267-.102.295-.106.598-.194.906-.258.059-.012.257-.073.332-.06l-.294.044c.118-.011.236-.018.355-.021.121-.003.242.004.364.003.583-.005-.34-.1.016-.013.259.064.637.08.86.239-.448-.319-.111-.038.022.035.131.072.254.157.382.233.357.208-.12-.056-.125-.111.005.051.293.252.338.294.164.155.308.326.46.491.225.245-.335-.495-.057-.068.055.084.112.166.165.252.08.128.155.259.225.393.085.162.2.592.013-.025.081.265.191.519.26.789.031.122.053.246.083.369.125.51-.034-.564-.002-.04.017.277.028.55.012.828-.013.22-.134.448.03-.114-.041.142-.055.3-.09.444-.031.125-.067.248-.108.37-.192.578.201-.302-.04.108-.092.157-.254.652-.427.711l.173-.217c-.071.088-.144.174-.22.259-.115.128-.235.25-.361.367-.03.028-.199.214-.26.23.258-.192.28-.21.067-.054-.097.068-.197.134-.298.197-1.054.679-1.584,2.162-.861,3.284.68,1.054,2.155,1.588,3.284.861,1.606-1.034,2.822-2.442,3.49-4.239.552-1.482.549-3.196.139-4.713-.897-3.321-3.839-5.935-7.353-5.966-2.997-.026-6.068,1.704-7.632,4.25s-1.286,6,.411,8.411c1.125,1.599,2.761,2.909,4.708,3.321,2.149.455,4.356.072,6.236-1.065,1.074-.649,1.571-2.183.861-3.284-.696-1.079-2.134-1.556-3.284-.861Z"/><path class="i" d="m32.026,235.373c.32,12.84.544,26.023,4.561,38.352,3.36,10.315,10.526,20.781,21.452,23.981,5.211,1.526,11.014,1.19,16.106-.632,5.355-1.916,9.897-5.4,13.479-9.791,3.645-4.469,6.324-9.56,8.763-14.761,2.849-6.076,5.209-12.372,7.239-18.765,4.606-14.503,7.59-29.445,11.152-44.221.724-3.002-3.904-4.282-4.629-1.276-3.038,12.602-5.653,25.313-9.215,37.783-3.256,11.399-7.234,22.918-13.419,33.099-2.666,4.388-6.048,8.551-10.466,11.273-4.158,2.562-9.094,3.764-13.964,3.376-9.83-.783-17.374-9.606-20.767-18.253-4.994-12.731-5.156-26.688-5.492-40.166-.077-3.083-4.877-3.095-4.8,0h0Z"/><path class="i" d="m58.512,222.773c7.051-10.993,13.37-22.435,19.882-33.749,1.544-2.682-2.603-5.102-4.145-2.423-6.512,11.315-12.832,22.756-19.882,33.749-1.673,2.608,2.48,5.018,4.145,2.423h0Z"/><path class="f" d="m94.11,145.95c1.007-4.37,2.299-8.419,3.92-11.784,3.785-7.859,9.42-10.396,17.807-11.541,4.043-.552,8.25-.186,12.023,1.368,4.254,1.751,7.624,5.517,5.279,10.482,3.635.8,5.162,3.136,5.019,6.078-.078,1.595-1.171,4.509-3.899,5.065l-.464.095c2.346,1.146,2.731,3.217,2.768,4.609.066,2.468-2.138,5.1-4.18,4.871-1.475-.166-2.681-.298-3.797-.399.74.413,1.16.648,1.16.648,1.403.783,2.262,2.449,2.362,3.677.105,1.292-.192,2.659-.932,3.701-1.167,1.642-3.148,1.736-4.853,1.929-2.228.252-4.245.838-4.992,2.925-.29.81-1.403,6.092-1.831,7.649-.861,3.131-2.239,6.196-4.533,8.551-2.294,2.355-5.604,3.923-8.971,3.666,0,0-1.381-.106-2.409-.184-5.298-2.199-12.473-5.577-14.198-8.233-1.927-2.969,1.748-8.841,2.054-13.799.397-6.426,1.246-13.219,2.664-19.374Z"/><path class="i" d="m135.756,134.399c1.056-3.06.479-6.204-1.53-8.719-1.863-2.333-4.626-3.742-7.431-4.614-5.988-1.861-12.95-1.228-18.808.892-4.987,1.805-8.905,5.172-11.438,9.842-2.951,5.439-4.509,11.661-5.616,17.707-.631,3.443-1.099,6.919-1.448,10.401-.312,3.108-.359,6.146-1.23,9.162-.75,2.596-1.909,5.316-1.815,8.066.097,2.826,1.776,4.579,3.943,6.156,2.285,1.663,4.871,2.934,7.425,4.127,1.289.602,2.591,1.173,3.901,1.727,1.392.589,2.747.699,4.243.789,6.998.419,12.329-4.817,14.818-10.889,1.007-2.457,1.526-5.049,2.115-7.627.215-.943.343-2.008.702-2.912.337-.845,1.149-1.044,2.008-1.229,1.429-.309,2.921-.257,4.315-.739,1.76-.608,3.127-1.821,3.89-3.522,1.575-3.508.464-7.604-2.839-9.647-2.634-1.63-5.048,2.521-2.423,4.145,1.421.879,1.826,3.471.131,4.369-.775.411-1.842.401-2.693.508-1.316.165-2.572.402-3.773.992-3.758,1.846-3.909,6.779-4.778,10.366-1.142,4.717-3.61,9.783-8.687,11.145-.98.263-1.913.3-2.924.231-.491-.033-1.019-.031-1.505-.115-.527-.091-1.042-.374-1.568-.603-2.447-1.067-4.875-2.203-7.197-3.524-.937-.533-1.874-1.09-2.739-1.735-.274-.204-.537-.42-.827-.696-.174-.165-.35-.335-.502-.52.264.321-.091-.128-.138-.237.139.318-.05-.175-.065-.26-.082-.464-.003.564-.032-.297-.014-.423.017-.799.076-1.171.195-1.224.595-2.426.958-3.607.804-2.618,1.444-5.151,1.63-7.893.2-2.948.479-5.895.88-8.823.77-5.617,1.902-11.25,3.81-16.599,1.434-4.021,3.481-8.188,7.076-10.614,4.168-2.812,9.944-3.862,14.925-3.614,4.308.214,12.572,2.401,10.534,8.308-1.01,2.926,3.625,4.183,4.629,1.276h0Z"/><path class="i" d="m118.598,135.056c2.845.193,5.695.401,8.521.785,1.881.255,5.057.585,6.69,1.34.228.105.44.236.656.361.102.063.202.129.299.2-.178-.138-.161-.117.051.062.161.153.319.311.458.485-.294-.368.093.186.117.228.072.127.251.599.118.211.084.244.147.489.208.739.024.109.045.219.061.33-.04-.263-.046-.247-.018.045-.007.229-.021.485-.001.711.041.466.139-.472.004.037-.05.187-.08.378-.133.564-.022.078-.257.729-.162.505.092-.215-.232.431-.277.507-.376.626-.74.942-1.568,1.137-1.262.298-2.011,1.736-1.676,2.952.355,1.291,1.687,1.975,2.952,1.676,5.932-1.4,7.567-9.916,3.052-13.747-2.445-2.075-5.824-2.419-8.884-2.876-3.473-.518-6.966-.817-10.468-1.054-1.295-.088-2.4,1.166-2.4,2.4,0,1.372,1.102,2.312,2.4,2.4h0Z"/><path class="i" d="m118.339,145.992c2.697.14,5.392.35,8.075.66,1.3.15,2.331.292,3.668.529.62.11,1.249.216,1.857.386.719.201.625.209,1.232.546.091.05.347.284.018-.002.074.064.152.128.219.199.111.118.472.61.172.149.096.147.188.295.277.446.058.098.095.205.15.303-.076-.134-.126-.405-.063-.115.039.178.107.352.147.531.048.211.042.713.026.022.009.397.083.787.029,1.187.046-.341-.134.404-.168.5-.036.099-.082.185-.258.491-.175.305-.007.083-.236.343-.086.098-.685.592-.436.43-.128.083-.264.168-.402.231.05-.023.275-.17.054-.041-.194.113.005.021.109.013-.142.011-.282.001-.424-.008-.741-.045-1.484-.166-2.223-.244-2.985-.313-5.957-.428-8.958-.382-3.086.047-3.095,4.847,0,4.8s6.169.084,9.252.413c1.727.184,3.23.391,4.815-.515,1.536-.877,2.621-2.386,3.243-4.01.845-2.207.49-5.042-.897-6.964-1.94-2.688-5.135-3.208-8.207-3.65-3.671-.529-7.368-.857-11.072-1.049-1.296-.067-2.4,1.151-2.4,2.4,0,1.356,1.1,2.332,2.4,2.4h0Z"/><path class="i" d="m221.08,236.232c-.007,11.718-.389,24.187-5.456,34.995-3.678,7.846-10.043,13.689-18.082,16.864-8.142,3.215-16.965,4.176-25.633,4.75-12.161.805-24.358,1.211-36.543,1.356-7.638.091-15.277.062-22.914-.086-7.563-.147-15.14-.323-22.678-1-1.293-.116-2.4,1.186-2.4,2.4,0,1.395,1.104,2.284,2.4,2.4,13.876,1.246,27.933,1.215,41.855,1.121,12.886-.087,25.774-.508,38.636-1.287,9.107-.552,18.447-1.38,27.095-4.477,8.733-3.127,16.252-8.671,20.934-16.787,6.941-12.031,7.578-26.708,7.586-40.248.002-3.089-4.798-3.094-4.8,0h0Z"/><path class="i" d="m106.786,257.458c16.232-1.33,32.457-2.723,48.642-4.545,5.553-.625,11.1-1.291,16.644-1.988,1.286-.162,2.4-.987,2.4-2.4,0-1.171-1.105-2.563-2.4-2.4-17.282,2.173-34.602,3.957-51.958,5.429-4.442.377-8.886.741-13.329,1.105-1.292.106-2.4,1.027-2.4,2.4,0,1.216,1.101,2.506,2.4,2.4h0Z"/><path class="i" d="m180.424,210.099c-.014,4.561-.621,9.175-1.044,13.711-.262,2.808-.538,5.615-.842,8.419-.121,1.116-.246,2.231-.385,3.345-.028.22-.056.439-.085.659.099-.761.014-.095-.011.067-.042.274-.082.549-.133.822-.236,1.273.352,2.588,1.676,2.952,1.168.321,2.715-.395,2.952-1.676.871-4.695,1.156-9.553,1.601-14.3.434-4.631,1.057-9.341,1.071-13.999.01-3.089-4.79-3.093-4.8,0h0Z"/></g></g></svg>